<?xml version="1.0" standalone="no"?>i
<!DOCTYPE svg PUBLIC "-//W3C//DTD SVG 1.1//EN" "http://www.w3.org/Graphics/SVG/1.1/DTD/svg11.dtd">

<svg id="cloud" width="200px" height="100px" version="1.1" xmlns="http://www.w3.org/2000/svg" xmlns:xlink="http://www.w3.org/1999/xlink" xml:space="preserve" style="fill-rule:evenodd;clip-rule:evenodd;stroke-linecap:round;stroke-linejoin:round;stroke-miterlimit:1.41421;">
  <g>
    <g id="Layer1" transform="matrix(1,0,0,1,0,-50)">
      <g transform="matrix(1,0,0,1,-44.3735,4.50591)">
        <path d="M107.754,125.704c8.72622,10.7127 21.9322,17.541 36.7123,17.541c14.7801,0 27.9861,-6.82826 36.7123,-17.541l-0.561642,-2.05237c2.75261,2.81843 6.00011,5.17215 9.60641,6.92832c4.63667,2.25793 9.86645,3.52807 15.4001,3.52807c19.079,0 34.5457,-15.0987 34.5457,-33.7238c0,-18.6251 -15.4666,-33.7238 -34.5457,-33.7238c-10.1357,0 -19.252,4.26124 -25.5713,11.0487l8.2282,-6.09249c-8.17017,-14.1906 -26.4502,-24.5467 -44.0152,-24.7753c-17.0474,-0.221915 -28.883,9.07461 -40.2255,24.6214l-0.43843,0.153743c-5.70503,-4.06192 -12.2319,-4.87572 -19.8337,-4.87572c-19.079,0 -34.5457,15.0987 -34.5457,33.7238c0,18.6251 15.4666,33.7238 34.5457,33.7238c8.45421,0 16.1991,-2.96464 22.2033,-7.88707c0.982509,-0.805488 1.91841,-1.6634 2.80318,-2.56932" style="fill:#ebebeb;stroke-width:1.33px;stroke:#000;"/>
      </g>
    </g>
  </g>
</svg>
