<?xml version="1.0" standalone="no"?>
<!DOCTYPE svg PUBLIC "-//W3C//DTD SVG 1.1//EN" "http://www.w3.org/Graphics/SVG/1.1/DTD/svg11.dtd">
<svg width="300px" height="300px" version="1.1" xmlns="http://www.w3.org/2000/svg" xmlns:xlink="http://www.w3.org/1999/xlink" xml:space="preserve" style="fill-rule:evenodd;clip-rule:evenodd;stroke-linecap:round;stroke-linejoin:round;stroke-miterlimit:1.41421;">
  <g id="cloud">
    <path d="M107.754,125.704c8.72622,10.7127 21.9322,17.541 36.7123,17.541c14.7801,0 27.9861,-6.82826 36.7123,-17.541l-0.561642,-2.05237c2.75261,2.81843 6.00011,5.17215 9.60641,6.92832c4.63667,2.25793 9.86645,3.52807 15.4001,3.52807c19.079,0 34.5457,-15.0987 34.5457,-33.7238c0,-18.6251 -15.4666,-33.7238 -34.5457,-33.7238c-10.1357,0 -19.252,4.26124 -25.5713,11.0487l8.2282,-6.09249c-8.17017,-14.1906 -26.4502,-24.5467 -44.0152,-24.7753c-17.0474,-0.221915 -28.883,9.07461 -40.2255,24.6214l-0.43843,0.153743c-5.70503,-4.06192 -12.2319,-4.87572 -19.8337,-4.87572c-19.079,0 -34.5457,15.0987 -34.5457,33.7238c0,18.6251 15.4666,33.7238 34.5457,33.7238c8.45421,0 16.1991,-2.96464 22.2033,-7.88707c0.982509,-0.805488 1.91841,-1.6634 2.80318,-2.56932" />
  </g>
  <g id="moon">
    <path d="M96.7212,8.41716c-0.827918,-0.24697 -1.66565,-0.47258 -2.51249,-0.676156c-3.66965,-0.882163 -7.51041,-1.35059 -11.4652,-1.35059c-25.9599,0 -47.0046,20.1834 -47.0046,45.0809c0,24.8975 21.0447,45.0809 47.0046,45.0809c4.27806,0 8.42264,-0.548128 12.3616,-1.57515l-0.0815784,-0.121749c-16.7007,-5.64911 -28.8266,-23.1706 -28.8266,-43.192c0,-18.9529 10.8662,-35.1456 26.1931,-41.6121c1.31651,-0.555441 2.66594,-1.03912 4.04422,-1.44662" />
  </g>
  <g id="sun">
    <!-- style="fill:#ebebeb;stroke-width:1.33px;stroke:#000;" -->
    <g id="body" transform="matrix(1,0,0,1,17.1133,40.3104)">
      <path d="M85.0886,6.45846c27.0163,0 48.9173,21.8495 48.9173,48.8023c0,26.9528 -21.901,48.8023 -48.9173,48.8023c-27.0163,0 -48.9173,-21.8495 -48.9173,-48.8023c0,-26.9528 21.901,-48.8023 48.9173,-48.8023Z" />
    </g>
    <g class="ray" transform="matrix(0.687515,-0.72617,0.72617,0.687515,-15.8591,56.1824)">
      <path d="M52.7912,8.85573l9.63651,47.0835l-19.273,0l9.63651,-47.0835Z" />
    </g>
    <g class="ray" transform="matrix(-0.715853,-0.698251,0.698251,-0.715853,58.237,211.108)">
      <path d="M52.7912,8.85573l9.63651,47.0835l-19.273,0l9.63651,-47.0835Z" />
    </g>
    <g class="ray" transform="matrix(-0.687515,-0.72617,-0.72617,0.687515,220.247,57.1636)">
      <path d="M52.7912,8.85573l9.63651,47.0835l-19.273,0l9.63651,-47.0835Z" />
    </g>
    <g class="ray" transform="matrix(0.715853,-0.698251,-0.698251,-0.715853,144.379,211.369)">
      <path d="M52.7912,8.85573l9.63651,47.0835l-19.273,0l9.63651,-47.0835Z" />
    </g>
    <g class="ray" transform="matrix(-0.00148986,-0.915745,0.913831,0.0264775,-2.23142,143.802)">
      <path d="M52.7912,8.85573l9.63651,47.0835l-19.273,0l9.63651,-47.0835Z" />
    </g>
    <g class="ray" transform="matrix(-0.915715,-0.00749284,0.0188574,0.841304,149.832,-5.83366)">
      <path d="M52.7912,8.85573l9.63651,47.0835l-19.273,0l9.63651,-47.0835Z" />
    </g>
    <g  class="ray" transform="matrix(-0.915715,0.00749284,0.0188574,-0.841304,150.406,195.743)">
      <path d="M52.7912,8.85573l9.63651,47.0835l-19.273,0l9.63651,-47.0835Z" />
    </g>
    <g class="ray" transform="matrix(0.0107013,-0.914569,-0.914509,-0.038734,204.66,145.357)">
      <path d="M52.7912,8.85573l9.63651,47.0835l-19.273,0l9.63651,-47.0835Z" />
    </g>
  </g>
</g>
</svg>
