<?xml version="1.0" standalone="no"?>
<!DOCTYPE svg PUBLIC "-//W3C//DTD SVG 1.1//EN" "http://www.w3.org/Graphics/SVG/1.1/DTD/svg11.dtd">
<svg width="200px" height="200px" version="1.1" xmlns="http://www.w3.org/2000/svg" xmlns:xlink="http://www.w3.org/1999/xlink" xml:space="preserve" style="fill-rule:evenodd;clip-rule:evenodd;stroke-linecap:round;stroke-linejoin:round;stroke-miterlimit:1.41421;">
  <g>
    <g id="Starburst">
      <g transform="matrix(1,0,0,1,11.1122,5.82369)">
        <path d="M93.1819,113.132c-0.143214,-3.98947 -0.0786478,-7.99183 -0.429641,-11.9684c-0.176572,-2.00047 -0.577781,-3.98884 -1.14877,-5.91421c-2.92825,-9.87403 -16.2497,-7.34374 -23.4869,-7.84089c-0.212222,-0.0145783 0.195506,-0.473846 0.407527,-0.491098c3.66713,-0.298395 7.36918,-0.0617746 11.029,-0.439492c3.03902,-0.313648 6.94356,-1.591 9.12402,-3.90875c2.43131,-2.58441 3.66673,-6.76624 4.09668,-10.1578c0.334668,-2.63994 0.223111,-5.31792 0.395197,-7.97342c0.05791,-0.893625 0.15724,-3.55521 0.294553,-2.6703c1.19172,7.67994 -0.637846,21.4184 10.2344,23.9193c2.37073,0.545332 4.77046,1.00923 7.19253,1.23579c2.53555,0.23717 5.09224,0.100975 7.63836,0.151462l0.0906137,0.139911c-11.4745,2.53848 -15.1215,-0.481946 -20.0692,4.07259c-4.65235,4.28267 -5.43595,22.5369 -5.43595,22.5369" style="fill:#ebebeb;stroke-width:1.33px;stroke:#000;"/>
      </g>
    </g>
  </g>
</svg>
